# xmcd CD database file
#
# Track frame offsets:
#	187
#	21337
#	38137
#	50592
#	71287
#	92932
#	107890
#	123107
#	140722
#	153302
#	165750
#
# Disc length: 2482 seconds
#
# Revision: 3
# Processed by: cddbd v1.5.2PL0 Copyright (c) Steve Scherf et al.
# Submitted via: CDex 1.51
#
DISCID=8c09b00b
DTITLE=Poco - Indian Summer
DYEAR=1977
DGENRE=Rock
TTITLE0=Indian Summer
TTITLE1=Twenty Years
TTITLE2=Me And You
TTITLE3=Downfall
TTITLE4=Win Or Lose
TTITLE5=Living In The Band
TTITLE6=Stay (Night Until Noon)
TTITLE7=Find Out In Time
TTITLE8=The Dance: When The Dance Is Over
TTITLE9=The Dance: Go On And Dance
TTITLE10=The Dance: Never Gonna Stop - When The Dance Is Over (Reprise)
EXTD=YEAR: 1977
EXTT0=
EXTT1=
EXTT2=
EXTT3=
EXTT4=
EXTT5=
EXTT6=
EXTT7=
EXTT8=
EXTT9=
EXTT10=
PLAYORDER=
